<?xml version="1.0"?>
<svg xmlns="http://www.w3.org/2000/svg" xmlns:xlink="http://www.w3.org/1999/xlink" xmlns:svgjs="http://svgjs.com/svgjs" version="1.1" width="512" height="512" x="0" y="0" viewBox="0 0 24 24" style="enable-background:new 0 0 512 512" xml:space="preserve"><g><path xmlns="http://www.w3.org/2000/svg" d="M19,0H5A5.006,5.006,0,0,0,0,5V19a5.006,5.006,0,0,0,5,5H19a5.006,5.006,0,0,0,5-5V5A5.006,5.006,0,0,0,19,0ZM7,22V21a5,5,0,0,1,10,0v1Zm15-3a3,3,0,0,1-3,3V21A7,7,0,0,0,5,21v1a3,3,0,0,1-3-3V5A3,3,0,0,1,5,2H19a3,3,0,0,1,3,3Z" fill="#000000" data-original="#000000"/><path xmlns="http://www.w3.org/2000/svg" d="M12,4a4,4,0,1,0,4,4A4,4,0,0,0,12,4Zm0,6a2,2,0,1,1,2-2A2,2,0,0,1,12,10Z" fill="#000000" data-original="#000000"/></g></svg>
