<?xml version="1.0"?>
<svg xmlns="http://www.w3.org/2000/svg" xmlns:xlink="http://www.w3.org/1999/xlink" xmlns:svgjs="http://svgjs.com/svgjs" version="1.1" width="512" height="512" x="0" y="0" viewBox="0 0 24 24" style="enable-background:new 0 0 512 512" xml:space="preserve"><g><path xmlns="http://www.w3.org/2000/svg" d="m3 6a6 6 0 1 1 6 6 6.006 6.006 0 0 1 -6-6zm6 8a9.01 9.01 0 0 0 -9 9 1 1 0 0 0 1 1h16a1 1 0 0 0 1-1 9.01 9.01 0 0 0 -9-9zm12.414-2 2.293-2.293a1 1 0 0 0 -1.414-1.414l-2.293 2.293-2.293-2.293a1 1 0 0 0 -1.414 1.414l2.293 2.293-2.293 2.293a1 1 0 1 0 1.414 1.414l2.293-2.293 2.293 2.293a1 1 0 0 0 1.414-1.414z" fill="#000000" data-original="#000000"/></g></svg>
