<svg xmlns="http://www.w3.org/2000/svg" version="1.1" xmlns:xlink="http://www.w3.org/1999/xlink" xmlns:svgjs="http://svgjs.com/svgjs" width="512" height="512" x="0" y="0" viewBox="0 0 512 512" style="enable-background:new 0 0 512 512" xml:space="preserve" class=""><g><g xmlns="http://www.w3.org/2000/svg"><g><path d="m453.31 460.125c0 24.508-19.907 44.375-44.464 44.375h-305.692c-24.557 0-44.464-19.867-44.464-44.375v-408.25c0-24.508 19.907-44.375 44.464-44.375h190.303c8.857 0 17.35 3.516 23.606 9.773l126.505 126.521c6.239 6.239 9.742 14.694 9.742 23.508z" fill="#f9f8f9" data-original="#f9f8f9" class=""></path><path d="m133.15 504.5h-30c-24.55 0-44.46-19.87-44.46-44.38v-408.24c0-24.51 19.91-44.38 44.46-44.38h30c-24.55 0-44.46 19.87-44.46 44.38v408.24c0 24.51 19.91 44.38 44.46 44.38z" fill="#e3e0e4" data-original="#e3e0e4" class=""></path><path d="m453.31 167.3v16.24h-115.96c-33.12 0-60.06-26.95-60.06-60.07v-115.97h16.17c8.85 0 17.35 3.52 23.6 9.77l126.51 126.52c6.24 6.24 9.74 14.7 9.74 23.51z" fill="#e3e0e4" data-original="#e3e0e4" class=""></path><path d="m450.32 153.54h-112.97c-16.6 0-30.06-13.46-30.06-30.07v-112.96c3.61 1.63 6.92 3.91 9.77 6.76l126.51 126.52c2.85 2.85 5.12 6.15 6.75 9.75z" fill="#80e29e" data-original="#80e29e" class=""></path><path d="m435 438.5h-358c-22.091 0-40-17.909-40-40v-146c0-22.091 17.909-40 40-40h358c22.091 0 40 17.909 40 40v146c0 22.091-17.909 40-40 40z" fill="#80e29e" data-original="#80e29e" class=""></path><path d="m102 438.5h-25c-22.09 0-40-17.91-40-40v-146c0-22.09 17.91-40 40-40h25c-22.09 0-40 17.91-40 40v146c0 22.09 17.91 40 40 40z" fill="#77d192" data-original="#77d192"></path></g><g><path d="m460.81 212.656v-45.354c0-10.88-4.24-21.111-11.938-28.811l-126.505-126.52c-7.719-7.72-17.985-11.971-28.91-11.971h-190.303c-28.653 0-51.964 23.271-51.964 51.875v24.346c0 4.143 3.358 7.5 7.5 7.5s7.5-3.357 7.5-7.5v-24.346c0-20.333 16.582-36.875 36.964-36.875h190.303c2.144 0 4.273.274 6.334.798v66.939c0 4.143 3.358 7.5 7.5 7.5s7.5-3.357 7.5-7.5v-57.128l120.413 120.428h-97.853c-12.439 0-22.56-10.123-22.56-22.566v-5.733c0-4.143-3.358-7.5-7.5-7.5s-7.5 3.357-7.5 7.5v5.733c0 20.714 16.85 37.566 37.56 37.566h107.694c.505 2.025.765 4.125.765 6.265v38.954c-3.475-.813-7.091-1.256-10.81-1.256h-358c-3.719 0-7.335.443-10.81 1.256v-95.554c0-4.143-3.358-7.5-7.5-7.5s-7.5 3.357-7.5 7.5v101.953c-13.041 8.477-21.69 23.166-21.69 39.845v104.824c0 4.143 3.358 7.5 7.5 7.5s7.5-3.357 7.5-7.5v-104.824c0-17.921 14.58-32.5 32.5-32.5h358c17.92 0 32.5 14.579 32.5 32.5v146c0 17.921-14.58 32.5-32.5 32.5h-358c-17.92 0-32.5-14.579-32.5-32.5v-6.176c0-4.143-3.358-7.5-7.5-7.5s-7.5 3.357-7.5 7.5v6.176c0 16.679 8.649 31.368 21.69 39.845v21.78c0 28.604 23.311 51.875 51.964 51.875h256.782c4.142 0 7.5-3.357 7.5-7.5s-3.358-7.5-7.5-7.5h-256.782c-20.382 0-36.964-16.542-36.964-36.875v-15.381c3.475.813 7.091 1.256 10.81 1.256h358c3.719 0 7.335-.443 10.81-1.256v15.381c0 20.333-16.582 36.875-36.964 36.875h-13.676c-4.142 0-7.5 3.357-7.5 7.5s3.358 7.5 7.5 7.5h13.676c28.653 0 51.964-23.271 51.964-51.875v-21.78c13.041-8.477 21.69-23.166 21.69-39.845v-146c0-16.679-8.649-31.368-21.69-39.844z" fill="#000000" data-original="#000000" class=""></path><path d="m242.003 261.004c-4.142 0-7.5 3.357-7.5 7.5v113.896c0 3.653 2.632 6.775 6.233 7.393.54.092 1.212.208 13.435.208 6.014 0 14.825-.028 27.791-.101 4.142-.023 7.481-3.399 7.458-7.542-.023-4.128-3.376-7.458-7.499-7.458-.014 0-.029 0-.043 0-9.769.055-23.955.114-32.375.094v-106.49c0-4.143-3.358-7.5-7.5-7.5z" fill="#000000" data-original="#000000" class=""></path><path d="m356.644 374.996c-13.204 0-25.976-5.396-34.166-14.434-2.781-3.069-7.524-3.303-10.594-.521s-3.303 7.524-.521 10.594c10.986 12.123 27.914 19.361 45.281 19.361 20.415 0 38.18-13.278 41.324-30.888 2.357-13.204-3.978-30.58-28.83-39.746-15.127-5.58-29.124-11.683-32.117-13.001-4.619-3.244-6.878-8.529-6.057-14.249.984-6.858 6.144-12.33 13.801-14.637 19.702-5.939 37.242 8.206 37.604 8.502 3.171 2.648 7.889 2.234 10.55-.93 2.665-3.171 2.255-7.902-.916-10.567-.962-.81-23.879-19.704-51.564-11.368-13.194 3.975-22.514 14.271-24.323 26.868-1.673 11.658 3.372 22.867 13.167 29.254.332.216.679.405 1.041.566.651.29 16.151 7.189 33.623 13.634 13.933 5.14 20.95 13.536 19.254 23.038-1.604 8.98-11.456 18.524-26.557 18.524z" fill="#000000" data-original="#000000" class=""></path><path d="m116.736 388.627c3.347 2.37 8.051 1.598 10.451-1.812l36.869-52.335 36.814 52.331c2.398 3.411 7.101 4.186 10.45 1.818 3.388-2.383 4.202-7.062 1.819-10.449l-39.906-56.726 34.26-48.631c2.386-3.386 1.574-8.065-1.812-10.45-3.387-2.388-8.065-1.574-10.451 1.812l-31.165 44.238-31.118-44.234c-2.383-3.387-7.062-4.203-10.45-1.818-3.388 2.383-4.202 7.062-1.819 10.449l34.21 48.629-39.964 56.728c-2.386 3.386-1.574 8.065 1.812 10.45z" fill="#000000" data-original="#000000" class=""></path></g></g></g></svg>