<svg xmlns="http://www.w3.org/2000/svg" version="1.1" xmlns:xlink="http://www.w3.org/1999/xlink" xmlns:svgjs="http://svgjs.com/svgjs" width="512" height="512" x="0" y="0" viewBox="0 0 512 512" style="enable-background:new 0 0 512 512" xml:space="preserve" class=""><g><g xmlns="http://www.w3.org/2000/svg"><g><g><circle cx="255.997" cy="256.007" fill="#00d8e0" r="241" data-original="#00d8e0" class=""></circle></g><g><path d="m79.264 256.007c0 8.877 3.596 16.907 9.411 22.723l90.886 90.889c12.549 12.547 32.896 12.547 45.445 0 12.549-12.552 12.549-32.896 0-45.444l-36.034-36.034h211.625c17.749 0 32.134-14.385 32.134-32.133 0-17.749-14.385-32.134-32.134-32.134h-211.618l36.027-36.027c12.549-12.552 12.552-32.899.003-45.448s-32.896-12.549-45.445 0l-90.867 90.867c-5.828 5.817-9.433 13.857-9.433 22.741z" fill="#e7f0ef" data-original="#e7f0ef"></path></g></g><g><path d="m437.02 74.98c-48.353-48.351-112.64-74.98-181.02-74.98s-132.667 26.629-181.02 74.98c-48.351 48.352-74.98 112.639-74.98 181.02s26.629 132.668 74.98 181.02c48.353 48.351 112.64 74.98 181.02 74.98s132.667-26.629 181.02-74.98c48.351-48.352 74.98-112.639 74.98-181.02s-26.629-132.668-74.98-181.02zm-181.02 407.02c-124.617 0-226-101.383-226-226s101.383-226 226-226c124.616 0 226 101.383 226 226s-101.384 226-226 226z" fill="#000000" data-original="#000000" class=""></path><path d="m400.6 208.866h-175.406l10.422-10.422c18.377-18.381 18.378-48.284.002-66.661-8.902-8.901-20.738-13.805-33.329-13.805-12.59 0-24.426 4.903-33.329 13.805l-90.86 90.859c-8.92 8.909-13.833 20.754-13.833 33.358 0 12.591 4.902 24.428 13.804 33.329l90.887 90.89c8.902 8.9 20.739 13.803 33.329 13.803s24.426-4.902 33.33-13.805c18.375-18.379 18.375-48.281-.001-66.656l-10.427-10.428h175.411c25.989 0 47.134-21.144 47.134-47.133-.001-25.99-21.145-47.134-47.134-47.134zm0 64.267h-211.625c-6.067 0-11.537 3.654-13.858 9.26s-1.038 12.057 3.252 16.347l36.034 36.034c6.68 6.68 6.679 17.551 0 24.23-3.236 3.235-7.539 5.018-12.117 5.018s-8.881-1.782-12.116-5.017l-90.886-90.889c-3.236-3.235-5.018-7.538-5.018-12.116 0-4.581 1.787-8.889 5.039-12.136l90.868-90.867c3.236-3.235 7.539-5.019 12.116-5.019s8.879 1.783 12.116 5.019c6.68 6.681 6.678 17.553-.003 24.235l-36.027 36.027c-4.29 4.29-5.574 10.742-3.252 16.347s7.792 9.26 13.858 9.26h211.619c9.448 0 17.134 7.687 17.134 17.134s-7.686 17.133-17.134 17.133z" fill="#000000" data-original="#000000" class=""></path></g></g></g></svg>