<svg xmlns="http://www.w3.org/2000/svg" version="1.1" xmlns:xlink="http://www.w3.org/1999/xlink" xmlns:svgjs="http://svgjs.com/svgjs" width="512" height="512" x="0" y="0" viewBox="0 0 512.093 512.093" style="enable-background:new 0 0 512 512" xml:space="preserve" class=""><g><g xmlns="http://www.w3.org/2000/svg" id="XMLID_1348_"><path id="XMLID_1353_" d="m429.947 82.146c-96.07-96.07-251.83-96.07-347.9 0-87.278 87.278-95.257 223.817-23.953 320.112l-18.939 70.68 70.68-18.939c96.295 71.304 232.834 63.325 320.112-23.953 96.07-96.07 96.07-251.83 0-347.9z" fill="#a0e1ff" data-original="#fff1a0" class=""></path><g id="XMLID_1349_"><g id="XMLID_1351_"><path id="XMLID_1352_" d="m189.253 191.746c-14.592.146-25.272-14.036-20.743-27.908 4.552-13.944 12.517-26.633 23.481-37.105 17.997-17.187 41.636-26.02 66.55-24.874 21.764 1.001 42.736 10.538 59.051 26.853s25.852 37.287 26.853 59.052c1.637 35.566-17.838 68.882-49.614 84.876-11.744 5.91-19.04 17.561-19.04 30.405 0 11.843-9.6 21.443-21.443 21.443h-.083c-11.843 0-21.443-9.6-21.443-21.443 0-29.177 16.359-55.535 42.692-68.788 16.657-8.383 26.865-25.857 26.007-44.518-1.053-22.895-22.06-43.902-44.954-44.956-13.086-.605-25.473 4.024-34.898 13.026-5.618 5.365-9.732 11.842-12.142 18.957-2.979 8.793-10.991 14.888-20.274 14.98z" fill="#d80000" data-original="#ff7d95" class=""></path></g><circle id="XMLID_1350_" cx="254.307" cy="388.942" fill="#d80000" r="21.485" data-original="#ff7d95" class=""></circle></g><g id="XMLID_1737_"><g id="XMLID_1738_"><path id="XMLID_919_" d="m429.949 92.143c-2.63 0-5.21-1.07-7.07-2.93s-2.93-4.44-2.93-7.07 1.07-5.21 2.93-7.07c1.86-1.859 4.44-2.93 7.07-2.93s5.21 1.07 7.07 2.93 2.93 4.44 2.93 7.07c0 2.64-1.07 5.21-2.93 7.07s-4.44 2.93-7.07 2.93z" fill="#000000" data-original="#000000" class=""></path></g></g><g id="XMLID_1551_"><path id="XMLID_918_" d="m256.038 512.092c-53.097.001-104.985-16.456-148.219-47.201l-66.076 17.705c-3.452.924-7.133-.062-9.66-2.588-2.526-2.526-3.513-6.209-2.588-9.659l17.705-66.076c-34.198-48.09-50.718-106.895-46.575-166.15 4.301-61.498 30.705-119.403 74.349-163.048 87.364-87.363 224.498-99.97 326.075-29.975 4.547 3.134 5.694 9.36 2.56 13.908-3.133 4.55-9.361 5.695-13.909 2.561-93.629-64.52-220.042-52.892-300.582 27.648-82.012 82.012-91.895 214.032-22.988 307.089 1.814 2.45 2.412 5.595 1.623 8.539l-14.456 53.95 53.949-14.456c2.944-.788 6.089-.191 8.539 1.622 93.06 68.908 225.08 59.025 307.09-22.987 80.542-80.541 92.168-206.957 27.645-300.588-3.134-4.548-1.988-10.775 2.56-13.909 4.547-3.133 10.775-1.987 13.909 2.56 69.999 101.578 57.395 238.715-29.971 326.08-43.645 43.645-101.549 70.049-163.048 74.35-5.983.417-11.969.625-17.932.625z" fill="#000000" data-original="#000000" class=""></path></g><g id="XMLID_1295_"><g id="XMLID_2108_"><g id="XMLID_2110_"><path id="XMLID_915_" d="m254.348 334.488c-17.421 0-31.527-14.105-31.527-31.443 0-32.979 18.468-62.76 48.197-77.721 13.138-6.612 21.19-20.4 20.513-35.126-.815-17.726-17.7-34.61-35.425-35.426-10.313-.468-20.099 3.169-27.532 10.268-4.433 4.234-7.655 9.259-9.578 14.934-4.365 12.89-16.278 21.639-29.644 21.771v.001c-.105.001-.21.001-.315.001-10.039 0-19.554-4.82-25.505-12.938-6.022-8.214-7.673-18.446-4.53-28.074 5.066-15.519 14.085-29.776 26.08-41.233 19.991-19.092 46.233-28.899 73.917-27.632 24.26 1.115 47.58 11.688 65.663 29.771s28.655 41.402 29.771 65.664c1.818 39.501-19.813 76.504-55.108 94.268-8.349 4.201-13.536 12.43-13.536 21.473.002 17.337-14.103 31.442-31.441 31.442zm-.069-199.758c.914 0 1.829.021 2.749.064 28.232 1.298 53.183 26.249 54.481 54.484 1.04 22.596-11.325 43.757-31.5 53.911-22.939 11.543-37.188 34.479-37.188 59.855 0 6.31 5.133 11.443 11.443 11.443 6.393 0 11.526-5.134 11.526-11.443 0-16.646 9.405-31.719 24.545-39.338 28.257-14.222 45.575-43.852 44.12-75.483-.886-19.269-9.386-37.893-23.935-52.44-14.549-14.548-33.172-23.048-52.439-23.935-22.163-1.006-43.184 6.835-59.185 22.117-9.752 9.314-16.778 20.409-20.88 32.977-1.12 3.428-.519 7.088 1.646 10.042 2.222 3.031 5.631 4.763 9.368 4.763.041 0 .074-.021.123-.001 4.877-.048 9.258-3.339 10.9-8.188 2.926-8.64 8.012-16.586 14.706-22.98 10.762-10.278 24.706-15.848 39.52-15.848z" fill="#000000" data-original="#000000" class=""></path></g></g><g id="XMLID_2161_"><path id="XMLID_912_" d="m254.306 420.426c-17.361 0-31.485-14.124-31.485-31.484 0-17.361 14.124-31.485 31.485-31.485s31.485 14.124 31.485 31.485c0 17.36-14.124 31.484-31.485 31.484zm0-42.969c-6.333 0-11.485 5.152-11.485 11.485 0 6.332 5.152 11.484 11.485 11.484s11.485-5.152 11.485-11.484c0-6.333-5.152-11.485-11.485-11.485z" fill="#000000" data-original="#000000" class=""></path></g></g></g></g></svg>