<svg xmlns="http://www.w3.org/2000/svg" version="1.1" xmlns:xlink="http://www.w3.org/1999/xlink" xmlns:svgjs="http://svgjs.com/svgjs" width="512" height="512" x="0" y="0" viewBox="0 0 64 64" style="enable-background:new 0 0 512 512" xml:space="preserve" class=""><g><g xmlns="http://www.w3.org/2000/svg" id="Redo-Reloading-Arrow-Arrows-Direction-User_Interface" data-name="Redo-Reloading-Arrow-Arrows-Direction-User Interface"><path d="m55.18 29.79a24 24 0 1 1 -29.39-16.97l1.46-.39-4.98-2.88a3 3 0 0 1 3-5.2l12.12 7a2 2 0 0 1 .73 2.73l-7 12.13a3 3 0 1 1 -5.19-3l2.87-4.99-.99.27c-9.58 2.56-15.69 12.29-13.26 21.91a18 18 0 1 0 31.73-15.37 3.136 3.136 0 0 1 -.67-1.92 2.9 2.9 0 0 1 .4-1.47 2.99 2.99 0 0 1 4.93-.38 23.728 23.728 0 0 1 4.24 8.53z" fill="#ff9811" data-original="#ff9811"></path><path d="m53 36a21 21 0 1 1 -21-21 21.307 21.307 0 0 1 5.21.65l-6.09 10.56a3 3 0 1 1 -5.19-3l2.87-4.99-.99.27c-9.58 2.56-15.69 12.29-13.26 21.91a18 18 0 1 0 31.73-15.37 3.136 3.136 0 0 1 -.67-1.92 2.9 2.9 0 0 1 .4-1.47 2.677 2.677 0 0 1 .6-.72 20.917 20.917 0 0 1 6.39 15.08z" fill="#ee8700" data-original="#ee8700"></path><path d="m53 36a21 21 0 1 1 -21-21 21.307 21.307 0 0 1 5.21.65l-6.09 10.56a3 3 0 1 1 -5.19-3l2.87-4.99-.99.27c-9.58 2.56-15.69 12.29-13.26 21.91a18 18 0 1 0 31.73-15.37 3.136 3.136 0 0 1 -.67-1.92 2.9 2.9 0 0 1 .4-1.47 2.677 2.677 0 0 1 .6-.72 20.917 20.917 0 0 1 6.39 15.08z" fill="#ee8700" data-original="#ee8700"></path><path d="m56.15 29.53a24.617 24.617 0 0 0 -4.42-8.88 3.95 3.95 0 0 0 -3.39-1.51 4.01 4.01 0 0 0 -2.86 6.5 16.8 16.8 0 0 1 3.05 6.39 17.073 17.073 0 0 1 -12.29 20.43 16.98 16.98 0 0 1 -20.72-12.31 17.273 17.273 0 0 1 11.17-20.27l-1.63 2.83a4 4 0 0 0 4.5 5.86 4.024 4.024 0 0 0 2.43-1.86l7-12.13a3.016 3.016 0 0 0 -1.1-4.1l-12.12-7a4.015 4.015 0 0 0 -5.47 1.47 3.991 3.991 0 0 0 1.47 5.46l2.91 1.69a25 25 0 0 0 7.31 48.91 24.13 24.13 0 0 0 3.69-.28 25.014 25.014 0 0 0 20.47-31.2zm-4.9 19.06a23.008 23.008 0 0 1 -40.65-4.14 22.8 22.8 0 0 1 .88-18.83 23.035 23.035 0 0 1 14.57-11.84l1.46-.39a1 1 0 0 0 .24-1.83l-4.98-2.88a2 2 0 0 1 -.94-1.21 2.06 2.06 0 0 1 .2-1.52 2.005 2.005 0 0 1 2.74-.73l12.12 7a1 1 0 0 1 .37 1.36l-7 12.13a2 2 0 0 1 -3.47-2l2.88-4.99a1.018 1.018 0 0 0 -.07-1.11.988.988 0 0 0 -1.05-.35l-.99.26c-10.24 2.74-16.51 13.11-13.98 23.12a18.988 18.988 0 0 0 23.16 13.76 19 19 0 0 0 10.33-29.98 2 2 0 0 1 1.41-3.28 1.9 1.9 0 0 1 1.67.74 22.732 22.732 0 0 1 4.07 8.17 23.073 23.073 0 0 1 -2.97 18.54z" fill="#000000" data-original="#000000"></path></g></g></svg>