<svg xmlns="http://www.w3.org/2000/svg" version="1.1" xmlns:xlink="http://www.w3.org/1999/xlink" xmlns:svgjs="http://svgjs.com/svgjs" width="512" height="512" x="0" y="0" viewBox="0 0 512 512" style="enable-background:new 0 0 512 512" xml:space="preserve" class=""><g><g xmlns="http://www.w3.org/2000/svg" clip-rule="evenodd" fill-rule="evenodd"><g><g><path d="m437.609 105.181-61.254 8.842c-1.925.278-3.722-.516-4.813-2.127-1.09-1.61-1.161-3.574-.188-5.258l7.087-12.274c-6.64-5.02-13.662-9.687-21.057-13.956-96.984-55.994-220.997-22.765-276.99 74.219-28.587 49.513-33.908 106.067-19.373 157.022 1.264 4.43-.587 9.003-4.576 11.306l-20.697 11.949c-2.698 1.557-5.665 1.782-8.566.648s-4.931-3.309-5.858-6.282c-19.735-63.265-13.991-134.267 21.757-196.186 67.891-117.591 218.253-157.88 335.844-89.989 7.372 4.257 14.44 8.838 21.197 13.715l9.516-16.483c.973-1.684 2.708-2.605 4.648-2.466s3.527 1.298 4.249 3.104l22.969 57.468c.583 1.459.475 2.958-.31 4.319-.786 1.361-2.03 2.204-3.585 2.429zm53.065 77.572c-.928-2.974-2.957-5.149-5.858-6.282-2.902-1.134-5.868-.909-8.566.648l-20.697 11.949c-3.989 2.303-5.84 6.877-4.576 11.307 14.538 50.952 9.212 107.509-19.374 157.022-55.994 96.984-180.006 130.213-276.99 74.22-7.395-4.269-14.417-8.936-21.057-13.956l7.034-12.182c.972-1.685.902-3.648-.189-5.259-1.09-1.611-2.888-2.405-4.813-2.127l-61.254 8.841c-1.555.225-2.799 1.067-3.585 2.428-.785 1.361-.893 2.86-.31 4.319l22.969 57.468c.722 1.806 2.308 2.965 4.248 3.105 1.94.139 3.676-.782 4.649-2.466l9.569-16.574c6.757 4.876 13.825 9.458 21.197 13.714 117.59 67.891 267.953 27.601 335.844-89.989 35.748-61.918 41.493-132.921 21.759-196.186z" fill="#ffe177" data-original="#ffe177" class=""></path><path d="m104.563 467.431-22.969-57.468c-.553-1.383-.485-2.801.192-4.104l-7.452 1.076c-1.555.224-2.799 1.067-3.585 2.428-.785 1.36-.893 2.859-.31 4.319l22.969 57.468c.722 1.806 2.308 2.966 4.248 3.104 1.94.139 3.676-.781 4.649-2.466l2.368-4.101c-.039-.084-.076-.169-.11-.256zm302.817-422.747 22.969 57.468c.553 1.382.485 2.801-.192 4.104l7.452-1.076c1.555-.225 2.799-1.067 3.585-2.428s.893-2.86.31-4.319l-22.969-57.468c-.722-1.806-2.308-2.965-4.248-3.104s-3.676.781-4.648 2.466l-2.368 4.101c.038.084.074.17.109.256z" fill="#ffd064" data-original="#ffd064"></path></g><g><ellipse cx="255.998" cy="256.011" fill="#837683" rx="137.5" ry="137.5" transform="matrix(.707 -.707 .707 .707 -106.047 256.002)" data-original="#837683"></ellipse><path d="m369.053 256.011c0 28.127-8.445 54.282-22.939 76.066-5.593 8.407-12.087 16.164-19.344 23.131-21.954 21.079-50.891 34.94-82.995 37.767 4.027.355 8.104.536 12.223.536 6.681 0 13.251-.477 19.677-1.397.829-.119 1.657-.245 2.481-.379 65.404-10.596 115.342-67.328 115.342-135.724 0-75.94-61.561-137.5-137.5-137.5-4.119 0-8.196.181-12.223.536 70.214 6.185 125.278 65.144 125.278 136.964z" fill="#685e68" data-original="#685e68"></path><path d="m255.999 269.272c-49.531 0-90.309 37.53-95.474 85.691 24.732 23.868 58.388 38.55 95.473 38.549 6.681 0 13.251-.477 19.677-1.397 29.243-4.192 55.514-17.588 75.79-37.156-5.156-48.171-45.928-85.687-95.466-85.687z" fill="#8ac9fe" data-original="#8ac9fe"></path><path d="m243.777 270.043c57.156 7.263 80.189 50.511 85.485 102.339 7.994-5.045 15.433-10.89 22.202-17.424-5.156-48.17-45.928-85.687-95.467-85.687-4.138.001-8.217.263-12.22.772z" fill="#60b7ff" data-original="#60b7ff"></path><circle cx="255.999" cy="213.465" fill="#f6dccd" r="48.548" data-original="#f6dccd"></circle><path d="m292.324 213.465c0 24.742-18.509 45.161-42.436 48.167 2.002.251 4.041.381 6.111.381 26.812 0 48.548-21.736 48.548-48.548s-21.736-48.548-48.548-48.548c-2.07 0-4.11.13-6.111.381 23.927 3.006 42.436 23.425 42.436 48.167z" fill="#f1cbbc" data-original="#f1cbbc"></path></g></g><path d="m356.359 337.769c-9.2-33.808-34.77-60.331-67.37-71.177 14.248-10.28 23.542-27 23.542-45.871 0-31.18-25.334-56.552-56.519-56.552-31.184 0-56.566 25.372-56.566 56.552 0 18.871 9.294 35.591 23.542 45.871-32.6 10.846-58.17 37.369-67.323 71.177-18.211-22.31-29.156-50.778-29.156-81.759 0-71.408 58.076-129.499 129.503-129.499 71.38 0 129.503 58.09 129.503 129.499-.001 30.981-10.946 59.448-29.156 81.759zm-140.921-117.048c0 22.348 18.211 40.54 40.526 40.549h.047c22.363-.009 40.526-18.201 40.526-40.549 0-22.358-18.163-40.55-40.526-40.55-22.362 0-40.573 18.192-40.573 40.55zm-46.423 131.14c22.976 20.9 53.547 33.647 86.996 33.647s63.973-12.747 86.996-33.647c-6.511-42.79-43.262-74.579-86.996-74.593s0 0-.047 0c-43.734.014-80.439 31.803-86.949 74.593zm86.996-241.348c-80.249 0-145.497 65.266-145.497 145.497s65.247 145.501 145.497 145.501c80.203 0 145.497-65.271 145.497-145.501s-65.294-145.497-145.497-145.497zm207.819 265.475c34.11-59.076 41.375-129.206 20.475-193.859l-24.391 14.069c16.276 55.613 9.152 115.77-19.862 166.062-39.346 68.101-110.915 106.212-184.418 106.212-36.044.009-72.512-9.153-105.867-28.43-7.69-4.411-15.097-9.332-22.079-14.62-3.208-2.43-4.152-6.879-2.123-10.379l4.01-6.93-51.896 7.492 19.485 48.678 6.558-11.361c1.132-1.962 3.02-3.349 5.237-3.831.566-.109 1.132-.17 1.699-.17 1.651 0 3.302.519 4.671 1.51 6.605 4.779 13.587 9.28 20.711 13.389 55.481 32.053 120.162 40.559 182.059 23.971 61.896-16.589 113.65-56.289 145.731-111.803zm32.364-208.399c-.802-2.208-2.548-3.958-4.765-4.76-2.218-.797-4.718-.59-6.746.59l-38.309 22.122c-3.255 1.892-4.765 5.821-3.586 9.412 17.267 53 11.228 111.071-16.606 159.31-54.207 93.837-174.605 126.107-268.442 71.927-5.001-2.911-9.954-6.048-14.719-9.379l8.681-14.97c1.509-2.661 1.415-5.949-.33-8.492-1.699-2.538-4.718-3.859-7.785-3.43l-78.221 11.289c-2.453.349-4.576 1.802-5.803 3.921-1.227 2.132-1.415 4.689-.472 6.973l29.298 73.418c1.179 2.849 3.821 4.789 6.888 5.01 3.019.217 5.944-1.321 7.501-3.982l10.426-18.098c4.812 3.241 9.813 6.327 14.814 9.228 39.441 22.773 83.222 34.402 127.569 34.402 22.221 0 44.63-2.93 66.662-8.832 66.049-17.701 121.247-60.048 155.404-119.261 38.073-65.957 44.866-144.825 18.541-216.398zm-468.477 162.301 24.391-14.078c-16.276-55.613-9.2-115.775 19.862-166.052 58.595-101.48 188.806-136.368 290.286-77.792 7.643 4.411 15.05 9.332 22.032 14.635 3.255 2.425 4.152 6.879 2.123 10.379l-4.057 7.016 51.896-7.487-19.484-48.678-6.464 11.266c-1.132 1.963-3.066 3.35-5.284 3.831-2.217.472-4.529-.009-6.322-1.34-6.652-4.779-13.587-9.289-20.711-13.389-36.988-21.348-78.032-32.251-119.596-32.251-20.853 0-41.8 2.741-62.511 8.28-61.898 16.592-113.652 56.292-145.686 111.802-34.109 59.071-41.422 129.206-20.475 193.858zm41.517-12.818c-17.314-53.014-11.275-111.071 16.607-159.31 54.16-93.842 174.558-126.112 268.394-71.933 5.048 2.902 9.954 6.039 14.719 9.384l-8.68 15.068c-1.557 2.647-1.415 5.949.283 8.478 1.745 2.543 4.765 3.869 7.784 3.43l78.268-11.29c2.406-.349 4.529-1.797 5.756-3.921 1.227-2.118 1.415-4.689.519-6.968l-29.344-73.417c-1.132-2.84-3.821-4.793-6.841-5.01-3.067-.222-5.992 1.331-7.501 3.977l-10.426 18.008c-4.812-3.236-9.766-6.326-14.814-9.228-59.209-34.181-128.183-43.258-194.232-25.571-66.002 17.701-121.2 60.053-155.404 119.261-38.073 65.95-44.819 144.831-18.541 216.4.849 2.208 2.595 3.958 4.812 4.76.896.321 1.793.481 2.736.481 1.368 0 2.736-.363 3.963-1.071l38.308-22.122c3.303-1.891 4.813-5.816 3.634-9.406z" fill="#000000" data-original="#000000" class=""></path></g></g></svg>