<svg xmlns="http://www.w3.org/2000/svg" version="1.1" xmlns:xlink="http://www.w3.org/1999/xlink" xmlns:svgjs="http://svgjs.com/svgjs" width="512" height="512" x="0" y="0" viewBox="0 0 511.99975 511" style="enable-background:new 0 0 512 512" xml:space="preserve" class=""><g><path xmlns="http://www.w3.org/2000/svg" d="m67.976562 97.210938h436.417969v282.074218h-436.417969zm0 0" fill="#fdc26b" data-original="#fdc26b"></path><path xmlns="http://www.w3.org/2000/svg" d="m67.976562 379.285156 218.210938-158.777344 218.207031 158.777344zm0 0" fill="#fba72d" data-original="#fba72d"></path><path xmlns="http://www.w3.org/2000/svg" d="m504.394531 379.285156-218.207031-158.777344-218.210938 158.777344h33.707032l184.503906-134.25 184.5 134.25zm0 0" fill="#fa9a0f" data-original="#fa9a0f"></path><path xmlns="http://www.w3.org/2000/svg" d="m67.976562 97.210938v85.128906l213.289063 120.519531c3.054687 1.722656 6.789063 1.722656 9.839844 0l171.472656-96.890625c7.835937-4.425781 17.535156 1.234375 17.535156 10.234375v163.082031h24.285157v-282.074218zm0 0" fill="#fcb54c" data-original="#fcb54c"></path><path xmlns="http://www.w3.org/2000/svg" d="m352.042969 268.425781-65.855469-47.917969-65.855469 47.917969 60.9375 34.429688c3.050781 1.726562 6.785157 1.726562 9.835938 0zm0 0" fill="#fa9a0f" data-original="#fa9a0f"></path><path xmlns="http://www.w3.org/2000/svg" d="m504.394531 97.210938v64.75l-218.207031 123.300781-218.210938-123.300781v-64.75zm0 0" fill="#fecf8a" data-original="#fecf8a"></path><path xmlns="http://www.w3.org/2000/svg" d="m96.96875 186.828125-89.363281-89.363281 89.363281-89.363282 28.675781 28.675782-60.6875 60.6875 60.6875 60.6875zm0 0" fill="#7af4ab" data-original="#7af4ab"></path><path xmlns="http://www.w3.org/2000/svg" d="m125.644531 36.777344-28.675781-28.675782-11.878906 11.875 9.632812 9.632813c3.960938 3.957031 3.960938 10.378906 0 14.335937l-46.347656 46.351563c-3.960938 3.957031-3.960938 10.378906 0 14.335937l46.347656 46.351563c3.960938 3.957031 3.960938 10.378906 0 14.335937l-9.632812 9.632813 11.878906 11.875 28.675781-28.675781-60.6875-60.6875zm0 0" fill="#6ad394" data-original="#6ad394"></path><path xmlns="http://www.w3.org/2000/svg" d="m339.285156 118.761719c-26.808594-26.808594-62.453125-41.574219-100.367187-41.574219h-58.8125l40.410156-40.410156-28.679687-28.675782-89.359376 89.363282 89.359376 89.363281 28.679687-28.675781-40.410156-40.410156h58.8125c27.082031 0 52.542969 10.546874 71.691406 29.695312l27.222656 27.226562 28.679688-28.679687zm0 0" fill="#7af4ab" data-original="#7af4ab"></path><g xmlns="http://www.w3.org/2000/svg" fill="#6ad394"><path d="m167.183594 124.664062 26.316406 26.320313c3.960938 3.957031 3.960938 10.378906 0 14.335937l-11.585938 11.585938 9.921876 9.921875 28.679687-28.675781-40.414063-40.410156h-10.054687c-3.609375 0-5.417969 4.367187-2.863281 6.921874zm0 0" fill="#6ad394" data-original="#6ad394"></path><path d="m193.5 43.949219-26.316406 26.316406c-2.554688 2.554687-.746094 6.921875 2.867187 6.921875h10.054688l40.410156-40.410156-28.679687-28.675782-9.921876 9.921876 11.585938 11.585937c3.960938 3.960937 3.960938 10.378906 0 14.339844zm0 0" fill="#6ad394" data-original="#6ad394"></path><path d="m339.285156 118.761719c-26.808594-26.808594-62.453125-41.574219-100.367187-41.574219h-19.84375c37.914062 0 73.554687 14.765625 100.367187 41.574219l20.054688 20.054687c3.960937 3.960938 3.960937 10.378906 0 14.339844l-11.585938 11.585938 9.921875 9.921874 28.675781-28.675781zm0 0" fill="#6ad394" data-original="#6ad394"></path></g><path xmlns="http://www.w3.org/2000/svg" d="m504.394531 89.609375h-51.324219c-4.203124 0-7.605468 3.40625-7.605468 7.605469 0 4.199218 3.402344 7.601562 7.605468 7.601562h43.722657v52.707032l-210.609375 119.007812-171.339844-96.824219 16.179688-16.175781c1.425781-1.429688 2.226562-3.363281 2.226562-5.378906s-.800781-3.949219-2.226562-5.375l-47.964844-47.960938h16.011718l87.390626 87.390625c1.425781 1.425781 3.359374 2.226563 5.375 2.226563 2.019531 0 3.953124-.800782 5.378906-2.226563l28.675781-28.675781c1.425781-1.425781 2.226563-3.359375 2.226563-5.378906 0-2.015625-.800782-3.949219-2.226563-5.375l-27.429687-27.429688h40.457031c25.046875 0 48.601562 9.753906 66.3125 27.46875l27.226562 27.226563c2.96875 2.96875 7.78125 2.96875 10.753907 0l28.675781-28.679688c2.96875-2.96875 2.96875-7.78125 0-10.753906l-27.226563-27.222656c-3.003906-3.003907-6.117187-5.855469-9.324218-8.566407h82.246093c4.199219 0 7.605469-3.40625 7.605469-7.605468 0-4.199219-3.40625-7.601563-7.605469-7.601563h-103.800781c-22.507812-13.058593-48.148438-20.027343-74.863281-20.027343h-40.457031l27.433593-27.429688c1.425781-1.425781 2.226563-3.359375 2.226563-5.375 0-2.019531-.800782-3.953125-2.226563-5.378906l-28.679687-28.675782c-2.96875-2.96875-7.78125-2.96875-10.753906 0l-16.609376 16.609376c-2.972656 2.972656-2.972656 7.785156 0 10.757812 2.96875 2.964844 7.78125 2.964844 10.753907 0l11.234375-11.238281 17.921875 17.925781-35.035157 35.03125c-2.171874 2.175781-2.824218 5.445312-1.648437 8.289062 1.175781 2.839844 3.949219 4.691407 7.027344 4.691407h58.8125c35.882812 0 69.617187 13.972656 94.992187 39.347656l21.847656 21.847656-17.921874 17.925781-21.847657-21.847656c-20.585937-20.585937-47.957031-31.925781-77.070312-31.925781h-58.8125c-3.074219 0-5.851563 1.851563-7.027344 4.695313s-.523437 6.113281 1.648437 8.285156l35.035157 35.035156-17.921875 17.921875-78.609375-78.609375 41.835937-41.839844c2.96875-2.96875 2.96875-7.78125 0-10.753906-2.96875-2.96875-7.78125-2.96875-10.753906 0l-44.734375 44.738281-16.007813-.003906 47.453126-47.449219c1.425781-1.429687 2.226562-3.359375 2.226562-5.378906 0-2.015625-.800781-3.949219-2.226562-5.375l-28.675782-28.679688c-1.425781-1.425781-3.359375-2.226562-5.375-2.226562-2.019531 0-3.953125.800781-5.378906 2.226562l-89.367188 89.363282c-2.96875 2.96875-2.96875 7.78125 0 10.753906l58.148438 58.148438v218.289062c0 4.199219 3.402344 7.605469 7.605469 7.605469h126.679687c4.199219 0 7.605469-3.40625 7.605469-7.605469s-3.40625-7.605469-7.605469-7.605469h-103.300781l145.25-105.691406 45.832031 25.902344c1.160156.65625 2.453125.984375 3.742188.984375 1.289062 0 2.578125-.328125 3.738281-.984375l45.839844-25.902344 145.253906 105.691406h-250.910156c-4.203125 0-7.605469 3.40625-7.605469 7.605469s3.402344 7.605469 7.605469 7.605469h274.289062c4.203125 0 7.605469-3.40625 7.605469-7.605469v-282.066406c0-4.199219-3.402344-7.605469-7.605469-7.605469zm-407.425781-70.753906 17.921875 17.921875-55.3125 55.3125c-1.425781 1.425781-2.226563 3.359375-2.226563 5.375 0 2.019531.800782 3.953125 2.226563 5.378906l55.3125 55.308594-17.921875 17.925781-78.609375-78.613281zm-21.386719 345.492187v-188.148437l16.007813 16.007812c1.425781 1.425781 3.359375 2.226563 5.375 2.226563 2.019531 0 3.953125-.800782 5.378906-2.226563l1.339844-1.339843 118.375 66.894531zm421.210938-189.359375v189.359375l-146.480469-106.585937zm0 0" fill="#000000" data-original="#000000" class=""></path></g></svg>