<svg xmlns="http://www.w3.org/2000/svg" version="1.1" xmlns:xlink="http://www.w3.org/1999/xlink" xmlns:svgjs="http://svgjs.com/svgjs" width="512" height="512" x="0" y="0" viewBox="0 0 512 512" style="enable-background:new 0 0 512 512" xml:space="preserve" class=""><g>
<g xmlns="http://www.w3.org/2000/svg">
	<circle style="" cx="383.502" cy="114.353" r="81.916" fill="#91dc5a" data-original="#91dc5a" class=""></circle>
	<path style="" d="M481.88,411.14H278.493c-12.423,0-22.493-10.07-22.493-22.493V262.603   c0-43.371,35.159-78.53,78.53-78.53h91.314c43.371,0,78.53,35.159,78.53,78.53v126.044   C504.373,401.07,494.303,411.14,481.88,411.14z" fill="#91dc5a" data-original="#91dc5a" class=""></path>
</g>
<g xmlns="http://www.w3.org/2000/svg">
	<path style="" d="M408.399,192.412c-7.845,2.5-16.218,3.851-24.897,3.851c-45.241,0-81.905-36.674-81.905-81.916   c0-45.231,36.664-81.905,81.905-81.905c8.678,0,17.052,1.352,24.897,3.851c-33.067,10.538-57.009,41.501-57.009,78.054   C351.39,150.911,375.332,181.874,408.399,192.412z" fill="#7ed63e" data-original="#7ed63e"></path>
	<path style="" d="M305.794,262.605v126.039c0,12.428,10.07,22.499,22.499,22.499h-49.794   c-12.428,0-22.499-10.07-22.499-22.499V262.605c0-43.371,35.16-78.532,78.532-78.532h49.794   C340.954,184.073,305.794,219.234,305.794,262.605z" fill="#7ed63e" data-original="#7ed63e"></path>
</g>
<g xmlns="http://www.w3.org/2000/svg">
	<circle style="" cx="135.134" cy="114.353" r="81.916" fill="#ffda44" data-original="#ffda44"></circle>
	<path style="" d="M233.507,411.14H30.12c-12.423,0-22.493-10.07-22.493-22.493V262.603   c0-43.371,35.159-78.53,78.53-78.53h91.314c43.371,0,78.53,35.159,78.53,78.53v126.044C256,401.07,245.93,411.14,233.507,411.14z" fill="#ffda44" data-original="#ffda44"></path>
</g>
<g xmlns="http://www.w3.org/2000/svg">
	<circle style="" cx="259.313" cy="182.835" r="81.916" fill="#ff7956" data-original="#ff7956"></circle>
	<path style="" d="M357.693,479.626H154.306c-12.423,0-22.493-10.07-22.493-22.493V331.088   c0-43.371,35.159-78.53,78.53-78.53h91.314c43.371,0,78.53,35.159,78.53,78.53v126.044   C380.187,469.555,370.116,479.626,357.693,479.626z" fill="#ff7956" data-original="#ff7956"></path>
</g>
<g xmlns="http://www.w3.org/2000/svg">
	<path style="" d="M160.03,192.412c-7.855,2.5-16.218,3.851-24.897,3.851c-45.241,0-81.916-36.674-81.916-81.916   c0-45.231,36.674-81.905,81.916-81.905c8.678,0,17.042,1.352,24.897,3.851c-33.067,10.538-57.019,41.501-57.019,78.054   C103.012,150.911,126.963,181.874,160.03,192.412z" fill="#ffd422" data-original="#ffd422"></path>
	<path style="" d="M57.415,262.605v126.039c0,12.428,10.071,22.499,22.499,22.499H30.12   c-12.428,0-22.499-10.07-22.499-22.499V262.605c0-43.371,35.16-78.532,78.532-78.532h49.794   C92.575,184.073,57.415,219.234,57.415,262.605z" fill="#ffd422" data-original="#ffd422"></path>
</g>
<g xmlns="http://www.w3.org/2000/svg">
	<path style="" d="M284.21,260.894c-7.845,2.5-16.218,3.851-24.897,3.851c-45.231,0-81.905-36.674-81.905-81.905   c0-45.241,36.674-81.916,81.905-81.916c8.678,0,17.052,1.352,24.897,3.851c-33.057,10.538-57.009,41.501-57.009,78.064   C227.201,219.392,251.153,250.356,284.21,260.894z" fill="#ff6243" data-original="#ff6243"></path>
	<path style="" d="M181.604,331.086v126.049c0,12.418,10.07,22.488,22.499,22.488h-49.794   c-12.428,0-22.499-10.07-22.499-22.488V331.086c0-43.371,35.16-78.532,78.532-78.532h49.794   C216.765,252.555,181.604,287.716,181.604,331.086z" fill="#ff6243" data-original="#ff6243"></path>
</g>
<path xmlns="http://www.w3.org/2000/svg" d="M445.642,178.752c16.879-16.3,27.397-39.144,27.397-64.396c0-24.948-10.528-48.95-28.88-65.86  c-3.099-2.856-7.916-2.652-10.772,0.437c-2.856,3.099-2.652,7.916,0.437,10.772c15.233,14.034,23.972,33.951,23.972,54.651  c0,54.712-57.265,90.212-105.818,67.26c-1.888-0.893-3.147-2.749-3.271-4.834c-0.616-10.346-5.089-43.254-36.597-66.214  c-1.687-1.23-2.589-3.278-2.336-5.35c5.802-47.497,55.356-77.846,100.749-60.086c3.923,1.524,8.343-0.406,9.877-4.329  c1.534-3.923-0.406-8.343-4.329-9.867c-52.979-20.703-110.843,12.803-120.672,67.481c-0.213,1.189-1.484,1.844-2.602,1.391  c-21.579-8.728-45.703-8.605-66.965,0.003c-1.115,0.451-2.379-0.201-2.592-1.385c-7.533-41.79-44.169-73.606-88.104-73.606  c0,0,0,0-0.01,0c-38.239,0-72.272,24.297-84.69,60.443c-1.372,3.983,0.752,8.312,4.735,9.684c3.973,1.362,8.312-0.752,9.684-4.735  c10.294-29.998,38.544-50.149,70.28-50.149c37.865,0,69.206,28.48,73.725,65.142c0.254,2.065-0.629,4.112-2.309,5.34  c-21.431,15.684-34.912,40.121-36.569,66.218c-0.132,2.078-1.378,3.932-3.26,4.823c-46.793,22.156-103.6-9.858-105.822-64.161  c-0.173-4.207-3.709-7.459-7.926-7.306c-4.207,0.173-7.469,3.719-7.306,7.926c0.925,22.56,10.192,43.666,26.157,59.61  C31.116,184.494,0,219.979,0,262.598v126.049c0,16.629,13.481,30.11,30.11,30.11h94.079v38.374c0,16.634,13.485,30.119,30.12,30.118  l204.083-0.01c16.218-0.366,29.419-13.871,29.419-30.11v-38.372h94.069c16.635,0,30.12-13.485,30.12-30.12V262.598  C512,221.909,483.628,187.725,445.642,178.752z M224.61,117.171c46.501-24.688,104.247,6.207,108.723,59.295  c-0.03,0-0.051,0-0.071,0.01h0.071c0.479,5.484,0.287,11.095-0.264,15.233c-0.071,0.01-0.152,0.01-0.234,0.01h0.234  c-1.936,19.665-13.733,40.534-33.037,53.218h-0.041v0.03c-15.802,10.376-34.187,13.88-51.379,11.381v-0.041  c-0.01,0.01-0.01,0.02-0.01,0.041c-8.811-1.039-20.235-4.973-30.008-11.412C171.09,213.703,174.835,143.503,224.61,117.171z   M372.568,457.129c0,8.259-6.888,14.877-14.715,14.877H154.309c-8.216,0-14.877-6.66-14.877-14.877V331.09  c0-15.914,5.152-30.953,14.897-43.483c2.581-3.323,1.982-8.109-1.341-10.701c-3.323-2.581-8.109-1.982-10.701,1.341  c-11.839,15.233-18.098,33.504-18.098,52.842v72.424H30.11c-8.211,0-14.867-6.656-14.867-14.867V262.599  c0-39.157,31.743-70.9,70.9-70.9h3.841c22.807,13.35,50.253,15.702,74.597,7.204c3.253-1.135,6.734,0.811,7.512,4.166  c3.11,13.412,9.243,25.677,17.637,36.042c2.591,3.2,0.981,7.983-2.98,9.108c-6.771,1.923-13.3,4.67-19.414,8.2  c-3.648,2.114-4.898,6.768-2.795,10.416c2.104,3.648,6.768,4.898,10.416,2.795c17.216-9.957,32.933-9.504,37.91-9.433  c0.965,0.014,1.901,0.281,2.743,0.754c27.575,15.486,60.961,14.906,87.194,0.124c0.961-0.542,2.054-0.829,3.155-0.764  c37.001,2.215,66.608,33.025,66.608,70.778C372.568,356.535,372.568,431.687,372.568,457.129z M496.757,388.647  c0,8.201-6.676,14.867-14.877,14.867h-94.069v-72.424c0-40.699-28.362-74.894-66.368-83.856  c14.647-14.129,23.527-32.166,26.37-50.779c25.454,11.143,55.617,9.896,80.645-4.705c37.884,1.372,68.298,32.63,68.298,70.849  V388.647z" fill="#000000" data-original="#000000" class=""></path>
<g xmlns="http://www.w3.org/2000/svg">
</g>
<g xmlns="http://www.w3.org/2000/svg">
</g>
<g xmlns="http://www.w3.org/2000/svg">
</g>
<g xmlns="http://www.w3.org/2000/svg">
</g>
<g xmlns="http://www.w3.org/2000/svg">
</g>
<g xmlns="http://www.w3.org/2000/svg">
</g>
<g xmlns="http://www.w3.org/2000/svg">
</g>
<g xmlns="http://www.w3.org/2000/svg">
</g>
<g xmlns="http://www.w3.org/2000/svg">
</g>
<g xmlns="http://www.w3.org/2000/svg">
</g>
<g xmlns="http://www.w3.org/2000/svg">
</g>
<g xmlns="http://www.w3.org/2000/svg">
</g>
<g xmlns="http://www.w3.org/2000/svg">
</g>
<g xmlns="http://www.w3.org/2000/svg">
</g>
<g xmlns="http://www.w3.org/2000/svg">
</g>
</g></svg>